<svg xmlns="http://www.w3.org/2000/svg" viewBox="0 0 41.91 23.63"><defs><style>.cls-1{fill:#d23d20;}</style></defs><title>icon_for_the_button_1</title><g id="Слой_1" data-name="Слой 1"><path class="cls-1" d="M1384.94,689.38a7.22,7.22,0,0,0-6-6.19,28,28,0,0,0-4.56-.08,6.33,6.33,0,0,0-3.23,1.12,10,10,0,0,1,4.44,8.79.53.53,0,0,0,.53.54h8.43a.53.53,0,0,0,.53-.53v-3.4A1.78,1.78,0,0,1,1384.94,689.38Z" transform="translate(-1343.1 -671.11)"/><path class="cls-1" d="M1366.38,685.13c-1.27-.1-2.56-.08-3.84-.06a7.33,7.33,0,0,0-5.32,2.32c-1.88,1.95-2.15,4.33-2,6.84a.53.53,0,0,0,.53.5h16.86a.53.53,0,0,0,.53-.55,23.86,23.86,0,0,0-.24-3.23A7.22,7.22,0,0,0,1366.38,685.13Z" transform="translate(-1343.1 -671.11)"/><path class="cls-1" d="M1367.52,682.05a6.27,6.27,0,0,0,1.92-7.19,5.7,5.7,0,0,0-6.24-3.67,6,6,0,0,0-4.8,6,6.22,6.22,0,0,0,1.85,4.45A5.51,5.51,0,0,0,1367.52,682.05Z" transform="translate(-1343.1 -671.11)"/><path class="cls-1" d="M1357.1,684.28a6.33,6.33,0,0,0-3.15-1.16,27.81,27.81,0,0,0-4,0,7.16,7.16,0,0,0-6.25,4.4c-.83,1.77-.6,3.65-.61,5.51a.53.53,0,0,0,.53.53h8.55a.53.53,0,0,0,.53-.54A10,10,0,0,1,1357.1,684.28Z" transform="translate(-1343.1 -671.11)"/><path class="cls-1" d="M1372.17,678a4.29,4.29,0,0,0,5.85,3.17,4.63,4.63,0,0,0,2.41-5.71,4.35,4.35,0,0,0-4.13-3,4.5,4.5,0,0,0-4.24,4.78C1372.07,677.42,1372.1,677.74,1372.17,678Z" transform="translate(-1343.1 -671.11)"/><path class="cls-1" d="M1352.65,681.46a4.6,4.6,0,0,0-.74-9,10.64,10.64,0,0,0-1.22.19,4.57,4.57,0,0,0-3,5.93A4.28,4.28,0,0,0,1352.65,681.46Z" transform="translate(-1343.1 -671.11)"/></g></svg>