<svg xmlns="http://www.w3.org/2000/svg" viewBox="0 0 31.03 24.53"><defs><style>.cls-1{fill:#d23d20;}</style></defs><title>icon_for_the_button_2</title><g id="Слой_1" data-name="Слой 1"><path class="cls-1" d="M1365.53,771.4l-.57-.06c-1.32-.1-2.66-.08-4-.06a7.62,7.62,0,0,0-5.52,2.41c-2,2-2.23,4.5-2.1,7.1a.56.56,0,0,0,.55.52h17.5a.55.55,0,0,0,.55-.57,25.28,25.28,0,0,0-.24-3.29A11.09,11.09,0,0,1,1365.53,771.4Z" transform="translate(-1353.32 -756.78)"/><path class="cls-1" d="M1364.82,768.93a10.74,10.74,0,0,1-.15-1.8,11,11,0,0,1,2.93-7.51,5.84,5.84,0,0,0-6-2.75,6.19,6.19,0,0,0-5,6.22,6.41,6.41,0,0,0,1.92,4.61A5.77,5.77,0,0,0,1364.82,768.93Z" transform="translate(-1353.32 -756.78)"/><path class="cls-1" d="M1375.76,758.53a8.6,8.6,0,1,0,8.6,8.6A8.6,8.6,0,0,0,1375.76,758.53Zm1.62,11.5-1.61,1.61-6-6,1.61-1.61,4.4,4.4,4.43-4.42,1.61,1.61-4.43,4.42Z" transform="translate(-1353.32 -756.78)"/></g></svg>