<svg xmlns="http://www.w3.org/2000/svg" viewBox="0 0 27.48 34.73">
    <defs>
        <style>.cls-1{fill:#fff;}</style>
    </defs>
    <title>icon_worker</title>
    <g id="Слой_1" data-name="Слой 1">
        <path class="cls-1"
              d="M331.07,205.77v2.49a1.86,1.86,0,0,1-1.86,1.86h-3.54V205c0-.89-.16-1.12-1-1.39v-6.24a7,7,0,0,1,2.1.82,8.32,8.32,0,0,1,4.13,5.69A9.71,9.71,0,0,1,331.07,205.77Z"
              transform="translate(-303.59 -175.39)"/>
        <path class="cls-1"
              d="M310,197.38v6.24l-.25.07a1,1,0,0,0-.76.95v5.49h-3.54a1.86,1.86,0,0,1-1.86-1.87c0-1.53,0-2.91,0-3.2a6.82,6.82,0,0,1,.16-1.22,8.54,8.54,0,0,1,6.14-6.47Z"
              transform="translate(-303.59 -175.39)"/>
        <path class="cls-1"
              d="M325.44,186.16a.39.39,0,0,1-.11-.27c0-.3.06-.61,0-.91a11.08,11.08,0,0,0-.17-2.08,9.15,9.15,0,0,0-4.27-5.63,24.71,24.71,0,0,0-2.25-1.1c0-.48-.51-.78-1.3-.78s-1.24.31-1.26.9a10.1,10.1,0,0,0-4.81,3.38,7.31,7.31,0,0,0-1.81,3.78,20.76,20.76,0,0,0-.12,2.37.56.56,0,0,1-.23.47,2.13,2.13,0,0,0-.59.79,4,4,0,0,0,.27,3.23,1.85,1.85,0,0,0,1.09,1,.77.77,0,0,1,.46.47,10.76,10.76,0,0,0,2.6,3.78,6.07,6.07,0,0,0,8.42.24,10.3,10.3,0,0,0,2.86-4,.94.94,0,0,1,.51-.49,3.21,3.21,0,0,0,1-.8,3.7,3.7,0,0,0,.61-2.48A2,2,0,0,0,325.44,186.16Zm-2,3a10.09,10.09,0,0,1-3,5.29,4.55,4.55,0,0,1-3,1.32,4.28,4.28,0,0,1-2.73-.89,9,9,0,0,1-3-4.16,9.92,9.92,0,0,1-.74-4.08,2.09,2.09,0,0,1,0-.24s0,0,.07-.18c.35.36.63.71.94,1a1.18,1.18,0,0,0,1.62.13,7.7,7.7,0,0,1,6.7-.5,7.94,7.94,0,0,1,.9.5,1.22,1.22,0,0,0,1.62-.12c.29-.27.55-.54.9-.87A10,10,0,0,1,323.46,189.13Z"
              transform="translate(-303.59 -175.39)"/>
        <path class="cls-1"
              d="M312.69,197.75c0,1.3,0,2.54,0,3.78a2.13,2.13,0,0,0,2.21,2.11q2.41,0,4.83,0a2.1,2.1,0,0,0,2.19-2c.07-1.27,0-2.55,0-3.88A7.54,7.54,0,0,1,312.69,197.75Z"
              transform="translate(-303.59 -175.39)"/>
        <path class="cls-1" d="M324,206v4.09H310.64V206a1.09,1.09,0,0,1,1.08-1.09h11.21A1.09,1.09,0,0,1,324,206Z"
              transform="translate(-303.59 -175.39)"/>
    </g>
</svg>