<svg xmlns="http://www.w3.org/2000/svg" viewBox="0 0 31.27 35.14">
    <defs>
        <style>.cls-1{fill:#fff;}</style>
    </defs>
    <title>icon_customer</title>
    <g id="Слой_1" data-name="Слой 1">
        <path class="cls-1"
              d="M235.25,204.22a5.87,5.87,0,0,0-.31-1.9,2.64,2.64,0,0,0-.13-.34,5.58,5.58,0,0,0-3.29-3.16c-2.18-.86-4.36-1.75-6.55-2.62-.84-.33-1.2-.1-1.49.88a25.68,25.68,0,0,1-1,3c-.41,1-.41,1-.56,1.36-.39-.87-.39-.87-.08-1.65l.28-.63a.8.8,0,0,0-.77-1.12c-1.13,0-2.27,0-3.38,0a.78.78,0,0,0-.76,1.09,3.19,3.19,0,0,0,.3.74,1.43,1.43,0,0,1-.11,1.56c-.06-.14-.09-.23-.14-.34-.52-1.44-1-2.88-1.56-4.32a1,1,0,0,0-1.26-.56c-2.27.9-4.51,1.78-6.77,2.71a5.55,5.55,0,0,0-3.19,3.09,6,6,0,0,0-.45,2.36v3.94a1.86,1.86,0,0,0,1.86,1.86h27.55a1.86,1.86,0,0,0,1.86-1.86C235.27,206.31,235.26,204.38,235.25,204.22ZM231,205.64a.44.44,0,0,1,0,.2c-.05.48-.36.72-.9.73h-5.14a.82.82,0,0,1-.91-.91c0-.77,0-1.52,0-2.29a.81.81,0,0,1,.92-.9c.86,0,1.71,0,2.57,0s1.69,0,2.53,0c.64,0,1,.3,1,.92S231,204.88,231,205.64Z"
              transform="translate(-204.01 -174.98)"/>
        <path class="cls-1"
              d="M227.78,185.27a.41.41,0,0,1-.11-.23c-.06-.74-.09-1.5-.12-2.23a10.12,10.12,0,0,0-.4-3.2,5.26,5.26,0,0,0-1.94-2.9,8.68,8.68,0,0,0-4.29-1.69,6.22,6.22,0,0,0-6.21,2.79.58.58,0,0,1-.35.19,3.51,3.51,0,0,0-2.1,1,4.66,4.66,0,0,0-.72,5.17,1.17,1.17,0,0,1-.23,1.26,3.31,3.31,0,0,0-.68,1.19,4.41,4.41,0,0,0,.42,3.08,2.52,2.52,0,0,0,1.41,1.5,2.21,2.21,0,0,1,1.44,1.4c.11.18.21.39.33.56a11.89,11.89,0,0,0,1.62,2,5.78,5.78,0,0,0,4.95,1.22,5.15,5.15,0,0,0,3.74-2.46c.42-.69.84-1.38,1.23-2.08a.89.89,0,0,1,.49-.41,4.38,4.38,0,0,0,1.26-.73,4.57,4.57,0,0,0,1.23-3A2.57,2.57,0,0,0,227.78,185.27Zm-8.14,9.81c-3.19,0-5.77-3.45-5.77-7.71A10.35,10.35,0,0,1,214,186c1.11.25,2.46.07,3.24-1.93,0,0,4.12,3.56,8,1.41a10.94,10.94,0,0,1,.2,1.91C225.41,191.63,222.83,195.08,219.64,195.08Z"
              transform="translate(-204.01 -174.98)"/>
    </g>
</svg>