<svg xmlns="http://www.w3.org/2000/svg" viewBox="0 0 254.63 292.52"><defs><style>.cls-1{fill:#f0f0f0;}.cls-2{fill:#0c1a23;}.cls-3{fill:#fca372;}.cls-4{fill:#060d11;}.cls-5{fill:#a0291a;}.cls-6{fill:#d23d20;}.cls-7{fill:#dd916b;}.cls-8{fill:#fff;}.cls-9{fill:#ddd;}</style></defs><title>illustration_customer</title><g id="Слой_1" data-name="Слой 1"><path class="cls-1" d="M325.81,473c79.95,2.66,63.5,30.47,22.36,28.19-78.61-2.71-101.61,53.68,65.64,66.58,158.94,8.35,131.36-28.4,103.53-30.27-74.14-3.79-53.73-42.79-22.11-41.52,0,0,57.23-4.22,46-36.63-9-22.57-67.64-12.36-98.07-12.36-72.59,0-137.89-38.09-145.89-3.53C297.31,443.41,290.56,471.6,325.81,473Z" transform="translate(-288.09 -396.05)"/><path class="cls-2" d="M419.91,679s4.16,3.85,13.63,6.27c2.09.53,4.33-.18,4.33,3.26h-11.5l-9.56-1.65v1.65h-5.16s-1.44-8.45,1.58-9.53Z" transform="translate(-288.09 -396.05)"/><path class="cls-3" d="M419.33,673l.58,6.07h0a5.84,5.84,0,0,1-6.33.21l-.35-.21L411.09,673Z" transform="translate(-288.09 -396.05)"/><path class="cls-2" d="M374,679s4.16,3.85,13.63,6.27c2.09.53,4.33-.18,4.33,3.26h-11.5l-9.56-1.65v1.65H365.7s-1.44-8.45,1.58-9.53Z" transform="translate(-288.09 -396.05)"/><path class="cls-3" d="M373.38,673,374,679h0a5.84,5.84,0,0,1-6.33.21l-.35-.21L365.13,673Z" transform="translate(-288.09 -396.05)"/><polygon class="cls-4" points="113.51 125.08 126.74 125.08 131.39 278.38 122.45 278.38 96.19 153.61 113.51 125.08"/><polygon class="cls-2" points="117.8 125.08 86.89 278.38 77.05 278.38 81.08 125.08 117.8 125.08"/><path class="cls-5" d="M380.19,559l-3-.21a5.22,5.22,0,0,0-1.38-3.61c-1.15-1.17-3-1.76-5.48-1.76-2.73,0-4.77.6-5.92,1.74a3.57,3.57,0,0,0-1.08,2.5l-3,.17a6.28,6.28,0,0,1,1.84-4.58c1.74-1.78,4.47-2.68,8.12-2.68,3.37,0,6,.91,7.68,2.7A8,8,0,0,1,380.19,559Z" transform="translate(-288.09 -396.05)"/><rect x="60.08" y="166.43" width="44.27" height="28.48"/><path class="cls-6" d="M371.92,581.68c0,1.74-.83,1.94-1.85,1.94s-1.85-.2-1.85-1.94v-6A114.71,114.71,0,0,1,348.17,572v22.47c0,2,.78,3.63,2,3.63h40.36c1.18,0,2-1.63,2-3.63V572.12c-9.24,2.14-9.84,2.19-20.52,3.47Z" transform="translate(-288.09 -396.05)"/><path class="cls-5" d="M390.48,556.37H350.12c-1.18,0-2,1.63-2,3.63v10.9a68.57,68.57,0,0,0,20.06,3.41v-1.47c0-1.74.83-1.94,1.85-1.94s1.85.2,1.85,1.94v1.47a70.69,70.69,0,0,0,20.52-3.4V560C392.43,558,391.66,556.37,390.48,556.37Z" transform="translate(-288.09 -396.05)"/><path class="cls-3" d="M479.55,503.36c.46.36,2.15,1.47,6.25,1.81,3.68.31,11.51-1.3,10,2.34-3.52,1.9-7.43,4.56-7.43,4.56-2.24.94-6.22,0-8.58-1.11l-6.86-4.19s-.59-3.86-.65-4l1.57-.64A18.91,18.91,0,0,0,479.55,503.36Z" transform="translate(-288.09 -396.05)"/><path class="cls-3" d="M480.81,505a3,3,0,0,0,.41.44c-.49.2-1,.42-1.42.65-1.93.05-3.85.16-5.78.24.12-1.11.28-2.67.27-2.78l12.52-3s1,1.32-1.27,2.74A12.8,12.8,0,0,1,480.81,505Z" transform="translate(-288.09 -396.05)"/><path class="cls-3" d="M371.25,539l4.16,9.15s-.89,5-2.73,7a2,2,0,0,1-2.18.44c-1.73-.72-5.73-2.45-6.39-3.4a1.88,1.88,0,0,1-.2-1.63l1.21-4,.15-9.39Z" transform="translate(-288.09 -396.05)"/><polygon class="cls-7" points="107.66 32.95 107.8 45.2 96.88 44.61 96.19 25.61 107.66 32.95"/><path class="cls-3" d="M397.57,430.13a6.59,6.59,0,0,0,3.68-.87c4.4-6.4-.61-23.65-.61-23.65l-7-3-8.94,5.57-.51,11.56a9.38,9.38,0,0,0,4,8h0A18.31,18.31,0,0,0,397.57,430.13Z" transform="translate(-288.09 -396.05)"/><path class="cls-2" d="M387.15,414.77c.49-1.94-.84-6.42,1.14-6.1,1.44.24,6.39.44,8,.44,4,0,11-1.55,11-7.58a5.49,5.49,0,0,0-3.71-5.32c-1.82-.76-3.87,1.42-5.73,2.07-4.37,1.53-13.38,2.76-15.68,2.28-2.62-.54-5.36,2.13-5.56,3.72-.44,3.5,1.9,8.83,3.63,12.2a18.53,18.53,0,0,0,4,5.18h0Z" transform="translate(-288.09 -396.05)"/><path class="cls-3" d="M382.06,415.2a3,3,0,0,1,3.69.33c1.16,1,1.38,2.37.49,3.16a3,3,0,0,1-3.69-.33C381.39,417.4,381.17,416,382.06,415.2Z" transform="translate(-288.09 -396.05)"/><path class="cls-8" d="M390.08,437.4A31.45,31.45,0,0,0,377.27,440,30.83,30.83,0,0,0,360,461.36c-3.47,14.75-9.3,49.75,4.06,80.44a66.49,66.49,0,0,0,8.94,0l1.43-72.33-1,51.67h41.41V487.81s1.07,7.53,11.08,14.47,50.15,7.63,50.15,7.63v-7.83s-35.49-12.21-40.85-16.28-16.94-33.39-16.94-33.39a26.46,26.46,0,0,0-18.11-14.06A49.81,49.81,0,0,0,390.08,437.4Z" transform="translate(-288.09 -396.05)"/><polygon class="cls-9" points="85.9 125.08 86.88 75.58 85.81 75.55 84.82 125.08 85.9 125.08"/><polygon class="cls-8" points="96.68 37.87 96 41.89 108.55 41.87 107.73 37.87 96.68 37.87"/><polygon class="cls-2" points="107.73 37.87 102.28 37.87 105.5 41.89 107.73 37.87"/><polygon class="cls-2" points="105.52 38.4 111.26 88.88 105.65 94.78 100.04 88.88 105.52 38.4"/></g></svg>