<svg xmlns="http://www.w3.org/2000/svg" viewBox="0 0 293.85 180.76"><defs><style>.cls-1{fill:#f0f0f0;}.cls-2{fill:#ddd;}.cls-3{fill:#0c1a23;}.cls-4{fill:#ededed;}.cls-5{fill:#fff;}.cls-6{fill:#4343bf;}.cls-7{fill:#5454f7;}.cls-8{fill:#d23d20;}.cls-9{fill:#a0291a;}.cls-10{fill:#63c0c4;}.cls-11{fill:#198a8f;}.cls-12{fill:#f7f7f7;}</style></defs><title>illustration_</title><g id="Слой_1" data-name="Слой 1"><path class="cls-1" d="M631.6,742.06c-11.27,49,104.19,55.25,151.77,55.79a186.77,186.77,0,0,0,39.24-3.73c40.23-8.16,113-22.11,100.67-51.25-13.64-29.9-62.83-7.52-62.83-7.52s4.75-44-61.15-58.45c-81.45-18.74-81.13,43.71-81.13,43.71S645.75,680.56,631.6,742.06Z" transform="translate(-630.83 -617.74)"/><polygon class="cls-2" points="243.43 7.51 249.01 13.55 240.99 13.96 212.91 13.13 243.43 7.51"/><polygon class="cls-2" points="249.01 13.55 235.98 16.38 238.67 13.89 249.01 13.55"/><polygon class="cls-1" points="243.43 7.51 243.72 0 212.91 13.13 243.43 7.51"/><polygon class="cls-1" points="212.91 13.13 240.99 13.96 239.95 24.96 212.91 13.13"/><path class="cls-1" d="M879,639.2a.63.63,0,0,0-.16-1,17.58,17.58,0,0,0-3.05-1.11.63.63,0,1,0-.32,1.21,16.29,16.29,0,0,1,2.83,1A.63.63,0,0,0,879,639.2Z" transform="translate(-630.83 -617.74)"/><path class="cls-1" d="M888.26,707.66a.63.63,0,0,1,0-.88,17.61,17.61,0,0,0,3.33-5.08.63.63,0,0,1,1.15.51,18.85,18.85,0,0,1-3.57,5.44l0,0A.63.63,0,0,1,888.26,707.66Zm5-8.69a.62.62,0,0,1-.46-.76,22.4,22.4,0,0,0,.63-6.1.63.63,0,1,1,1.25,0,23.62,23.62,0,0,1-.67,6.44.61.61,0,0,1-.18.31A.62.62,0,0,1,893.22,699Zm.48-10a.63.63,0,0,1-.74-.49l-.06-.28a28.89,28.89,0,0,0-1.9-5.58.63.63,0,0,1,1.14-.52,30.21,30.21,0,0,1,2,5.82l.06.3a.63.63,0,0,1-.49.74Zm-3.57-9.42a.63.63,0,0,1-.86-.22,45.57,45.57,0,0,0-3.56-5.12.63.63,0,0,1,1-.78,46.66,46.66,0,0,1,3.66,5.26.63.63,0,0,1-.11.78Zm-6-8.15a.63.63,0,0,1-.88,0l-.35-.39a21,21,0,0,1-1.76,1.2.63.63,0,1,1-.65-1.07q.8-.49,1.56-1.05c-1-1-2-2.07-3.16-3.19a.63.63,0,0,1,.87-.9c1.2,1.16,2.28,2.25,3.27,3.31a19,19,0,0,0,2.11-2.11.63.63,0,0,1,1,.81,20.35,20.35,0,0,1-2.21,2.21l.31.34a.63.63,0,0,1,0,.88Zm3.32-6.41a.63.63,0,0,1-.25-.85,15.73,15.73,0,0,0,1.82-5.76.63.63,0,0,1,1.24.14,17,17,0,0,1-2,6.22.61.61,0,0,1-.13.16A.63.63,0,0,1,887.49,665Zm-9.83,8.89a19.56,19.56,0,0,1-6.37,1.28.63.63,0,1,1,0-1.25,18.3,18.3,0,0,0,6-1.2.63.63,0,0,1,.44,1.17Zm12.1-18.59a.63.63,0,0,1-.69-.56,19,19,0,0,0-1.6-5.88.63.63,0,0,1,1.14-.51,20.25,20.25,0,0,1,1.71,6.27.63.63,0,0,1-.56.69ZM867.37,674.8a16.33,16.33,0,0,1-1.65-.42,13.37,13.37,0,0,1-4.32-2.29.63.63,0,1,1,.78-1,12.12,12.12,0,0,0,3.92,2.07,15.2,15.2,0,0,0,1.52.39.63.63,0,1,1-.25,1.23Zm8.79-10.54a23.22,23.22,0,0,0-5-3.54.63.63,0,1,1,.55-1.12,24.43,24.43,0,0,1,5.29,3.72.63.63,0,0,1,.06.88l0,0A.63.63,0,0,1,876.15,664.26Zm10.37-18.48a.63.63,0,0,1-.87-.16,20.07,20.07,0,0,0-1.75-2.18,19.13,19.13,0,0,0-2.46-2.24.63.63,0,0,1,.76-1,20.3,20.3,0,0,1,2.62,2.39,21.32,21.32,0,0,1,1.86,2.31.63.63,0,0,1-.09.82ZM859.6,669.32a.63.63,0,0,1-.85-.23,7,7,0,0,1-.86-4.94,6.35,6.35,0,0,1,.63-1.71.63.63,0,1,1,1.1.6,5.1,5.1,0,0,0-.5,1.37,5.65,5.65,0,0,0,.73,4.06.63.63,0,0,1-.12.77Zm8.12-9.73a9,9,0,0,0-5.69,1,.63.63,0,1,1-.63-1.08,10.1,10.1,0,0,1,6.51-1.2.63.63,0,1,1-.2,1.24Z" transform="translate(-630.83 -617.74)"/><path class="cls-1" d="M886.14,710.1a.63.63,0,0,0-.75-1,13.42,13.42,0,0,1-2.7,1.28.63.63,0,1,0,.41,1.18,14.68,14.68,0,0,0,2.95-1.4Z" transform="translate(-630.83 -617.74)"/><rect class="cls-3" x="124.57" y="176.98" width="81.44" height="3.79"/><polygon class="cls-3" points="226.84 137.83 163.39 137.83 142.55 180.76 206.01 180.76 226.84 137.83"/><circle class="cls-4" cx="186.74" cy="160.33" r="2.55"/><path class="cls-5" d="M763,754.69V708.56a1.93,1.93,0,0,1,1.87-2h72.38a1.93,1.93,0,0,1,1.87,2v37.58a1.93,1.93,0,0,1-1.87,2H772.08a1.85,1.85,0,0,0-1.58.92l-4,6.7A1.86,1.86,0,0,1,763,754.69Z" transform="translate(-630.83 -617.74)"/><rect class="cls-1" x="771.05" y="712.98" width="60.07" height="2.87" transform="translate(971.35 811.08) rotate(180)"/><rect class="cls-1" x="771.05" y="719.59" width="60.07" height="2.87" transform="translate(971.35 824.31) rotate(180)"/><rect class="cls-1" x="771.05" y="726.21" width="60.07" height="2.87" transform="translate(971.35 837.54) rotate(180)"/><rect class="cls-1" x="771.05" y="732.83" width="30.72" height="2.87" transform="matrix(-1, 0, 0, -1, 942, 850.78)"/><path class="cls-6" d="M860.44,724.24V683.9a1.69,1.69,0,0,0-1.64-1.73H795.5a1.69,1.69,0,0,0-1.64,1.73v32.87a1.69,1.69,0,0,0,1.64,1.73h57a1.62,1.62,0,0,1,1.38.8l3.52,5.86A1.63,1.63,0,0,0,860.44,724.24Z" transform="translate(-630.83 -617.74)"/><rect class="cls-7" x="170.06" y="70.02" width="52.54" height="2.51"/><rect class="cls-7" x="170.06" y="75.81" width="52.54" height="2.51"/><rect class="cls-7" x="170.06" y="81.59" width="52.54" height="2.51"/><rect class="cls-7" x="195.73" y="87.38" width="26.87" height="2.51"/><polygon class="cls-1" points="141.57 41.42 125.1 29.87 116.35 27.12 109.49 27.38 141.57 41.42"/><polyline class="cls-2" points="141.57 41.42 109.68 29.46 109.49 27.38"/><polygon class="cls-2" points="108.14 34.98 108.17 35.05 109 40.3 141.49 41.42 108.14 34.98"/><polygon class="cls-1" points="102.2 31.32 107.29 28.03 141.36 41.34 111.24 37.19 102.2 31.32"/><path class="cls-1" d="M652.25,706.09a24.67,24.67,0,0,0,3.3-1,.48.48,0,1,1,.35.89,25.67,25.67,0,0,1-3.43,1.07q-.63.15-1.26.26a.48.48,0,1,1-.18-.94Z" transform="translate(-630.83 -617.74)"/><path class="cls-1" d="M723.83,644.48c1.47.35,3,.76,4.65,1.26a.48.48,0,1,1-.27.92c-1.65-.49-3.15-.9-4.6-1.25a.48.48,0,0,1,.22-.93Z" transform="translate(-630.83 -617.74)"/><path class="cls-1" d="M715.84,644a.48.48,0,0,1,.37-.83c1.53.15,3.14.39,4.78.71a.48.48,0,0,1-.18.94c-1.61-.31-3.19-.55-4.7-.69A.47.47,0,0,1,715.84,644Z" transform="translate(-630.83 -617.74)"/><path class="cls-1" d="M662.07,701.33a.47.47,0,0,1,.67.08.48.48,0,0,1-.08.67,26.7,26.7,0,0,1-4.09,2.65.48.48,0,0,1-.55-.07.46.46,0,0,1-.1-.13.48.48,0,0,1,.2-.65A25.88,25.88,0,0,0,662.07,701.33Z" transform="translate(-630.83 -617.74)"/><path class="cls-1" d="M664.18,700.15a.48.48,0,0,1,0-.68q.46-.45.89-.92a24.84,24.84,0,0,0,2.14-2.67.48.48,0,0,1,.67-.12.48.48,0,0,1,.12.67,25.75,25.75,0,0,1-2.22,2.77q-.45.49-.93,1a.48.48,0,0,1-.66,0Z" transform="translate(-630.83 -617.74)"/><path class="cls-1" d="M668.89,694.13l-.1-.07a.48.48,0,0,1-.1-.58,32.7,32.7,0,0,0,1.93-4.3.48.48,0,1,1,.9.33,33.38,33.38,0,0,1-2,4.43A.48.48,0,0,1,668.89,694.13Z" transform="translate(-630.83 -617.74)"/><path class="cls-1" d="M685.9,654.84q-.67.66-1.31,1.36c-.64.7-1.26,1.43-1.85,2.16a.48.48,0,0,1-.67.08l0,0a.48.48,0,0,1-.05-.65c.6-.76,1.23-1.5,1.89-2.22q.66-.71,1.35-1.39a.46.46,0,0,1,.68,0A.48.48,0,0,1,685.9,654.84Z" transform="translate(-630.83 -617.74)"/><path class="cls-1" d="M681.08,660.66a35,35,0,0,0-2.35,4.1.48.48,0,0,1-.64.22l-.11-.08a.48.48,0,0,1-.11-.56,35.78,35.78,0,0,1,2.42-4.21.48.48,0,1,1,.8.53Z" transform="translate(-630.83 -617.74)"/><path class="cls-1" d="M691.8,650.1a39,39,0,0,0-3.79,2.83.48.48,0,0,1-.63,0l0,0a.48.48,0,0,1,.06-.67,40.08,40.08,0,0,1,3.89-2.9.48.48,0,0,1,.53.8Z" transform="translate(-630.83 -617.74)"/><path class="cls-1" d="M701.17,645.63a.48.48,0,0,1-.29-.91,37.92,37.92,0,0,1,4.71-1.18.48.48,0,1,1,.17.94A37,37,0,0,0,701.17,645.63Z" transform="translate(-630.83 -617.74)"/><path class="cls-1" d="M673.75,679.65a.48.48,0,0,1-.36-.57l.13-.59c.31-1.36.61-2.73.94-4.09a.48.48,0,0,1,.93.23c-.33,1.35-.63,2.71-.94,4.07l-.13.59A.48.48,0,0,1,673.75,679.65Z" transform="translate(-630.83 -617.74)"/><path class="cls-1" d="M694.23,648.63a.48.48,0,1,1-.47-.84,39.8,39.8,0,0,1,4.37-2.09.48.48,0,0,1,.36.89A38.69,38.69,0,0,0,694.23,648.63Z" transform="translate(-630.83 -617.74)"/><path class="cls-1" d="M673.32,681.52a.48.48,0,0,1,.36.58c-.43,1.83-.83,3.31-1.23,4.66a.48.48,0,0,1-.92-.28c.4-1.33.79-2.79,1.22-4.61A.48.48,0,0,1,673.32,681.52Z" transform="translate(-630.83 -617.74)"/><path class="cls-1" d="M648.24,706.72a.48.48,0,0,1,.08,1,38.69,38.69,0,0,1-4.85.1.48.48,0,1,1,0-1A38.11,38.11,0,0,0,648.24,706.72Z" transform="translate(-630.83 -617.74)"/><path class="cls-1" d="M677.32,666.73a.48.48,0,0,1,.27.62c-.53,1.36-1,2.84-1.48,4.51a.48.48,0,1,1-.92-.26c.48-1.7,1-3.2,1.51-4.59A.48.48,0,0,1,677.32,666.73Z" transform="translate(-630.83 -617.74)"/><path class="cls-1" d="M711.62,643q.85,0,1.69,0a.48.48,0,0,1,0,1q-.82,0-1.65,0c-1,0-2.05.07-3.08.17a.48.48,0,1,1-.1-1C709.51,643,710.58,643,711.62,643Z" transform="translate(-630.83 -617.74)"/><path class="cls-8" d="M727.12,727.76s34.41-11.34,43.06-27.59a11.47,11.47,0,0,0-10.61-16.8c-25.92.51-35.47,41.68-35.47,41.68Z" transform="translate(-630.83 -617.74)"/><path class="cls-9" d="M724.55,730l-.92-.54c.95-1.61,23.15-39.39,44.88-42.34l.76.92C748,691,724.78,729.65,724.55,730Z" transform="translate(-630.83 -617.74)"/><path class="cls-7" d="M700.69,701.07a47.63,47.63,0,0,1-7.8-14.66c-3.46-11.54,4.26-23.52,16.14-25.54,6.66-1.13,14.88,0,22.61,7.8,17,17.22-5.9,64.25-5.9,64.25h-8.26S717.17,723.1,700.69,701.07Z" transform="translate(-630.83 -617.74)"/><path class="cls-10" d="M708.28,732.91s-24.08-5.25-28.45-23.67a8.94,8.94,0,0,1,9.2-10.87c29.82,1.52,28.45,34.54,28.45,34.54Z" transform="translate(-630.83 -617.74)"/><path class="cls-6" d="M721.3,733l-1-.24c.11-.47,10.47-47.85-15.89-70.55l1.14-.45C732.37,684.9,721.41,732.55,721.3,733Z" transform="translate(-630.83 -617.74)"/><path class="cls-11" d="M713.55,733.18c-.17-.28-16.89-28.18-33-29.84l.6-1c16.67,1.71,32.66,29.15,33.34,30.32Z" transform="translate(-630.83 -617.74)"/><rect class="cls-8" x="72.03" y="115.16" width="30.73" height="29.19"/><path class="cls-9" d="M735.79,736.61H700.67a2.13,2.13,0,0,1-2.12-2.12h0a2.13,2.13,0,0,1,2.12-2.12h35.12a2.13,2.13,0,0,1,2.12,2.12h0A2.13,2.13,0,0,1,735.79,736.61Z" transform="translate(-630.83 -617.74)"/><path class="cls-12" d="M755.32,782.15c-3.77-1.4-69.41,0-69.41,0-3.37,0-6.46,3.77-6.46,7.14s3.09,7.14,6.46,7.14c0,0,64.18,2.7,69.44.08A41.88,41.88,0,0,1,755.32,782.15Z" transform="translate(-630.83 -617.74)"/><rect class="cls-7" x="50.06" y="165.72" width="74.05" height="0.34"/><path class="cls-7" d="M754.82,785.59H679.65v.34h75.09C754.76,785.81,754.79,785.7,754.82,785.59Z" transform="translate(-630.83 -617.74)"/><rect class="cls-7" x="47.88" y="170.88" width="75.94" height="0.34"/><rect class="cls-7" x="47.88" y="172.4" width="75.94" height="0.34"/><path class="cls-7" d="M754.87,792.58H679.43v.34h75.48C754.89,792.81,754.88,792.7,754.87,792.58Z" transform="translate(-630.83 -617.74)"/><path class="cls-7" d="M755.24,795.53H681.42c.08.11.15.22.21.34H755.3C755.28,795.76,755.26,795.65,755.24,795.53Z" transform="translate(-630.83 -617.74)"/><path class="cls-6" d="M685.91,796.43c-3.37,0-6.46-3.77-6.46-7.14s3.09-7.14,6.46-7.14c0,0,65.38-1.4,69.39,0,.17-.88.3-1.39.3-1.39H686.3a8.56,8.56,0,0,0-8.54,8.54h0a8.56,8.56,0,0,0,8.54,8.54s65.93,1.52,69.3,0c0-.13-.11-.6-.25-1.32C750,799.12,685.91,796.43,685.91,796.43Z" transform="translate(-630.83 -617.74)"/><rect class="cls-6" x="51.78" y="143.84" width="68.17" height="19.44" rx="4.6" ry="4.6"/><path class="cls-7" d="M692.66,761.58c-3.73,9.72.41,19.44.41,19.44h8.55s-3.13-11.11.51-19.44Z" transform="translate(-630.83 -617.74)"/><path class="cls-7" d="M732.3,761.58c-3.73,9.72.41,19.44.41,19.44h8.55s-3.13-11.11.51-19.44Z" transform="translate(-630.83 -617.74)"/></g></svg>