<svg xmlns="http://www.w3.org/2000/svg" viewBox="0 0 299.42 176.93"><defs><style>.cls-1{fill:#f0f0f0;}.cls-2{fill:#d23d20;}.cls-3{fill:#0c1a23;}.cls-4{fill:#fff;}.cls-5{fill:#fca372;}.cls-6{fill:#4343bf;}.cls-7{fill:#dd916b;}.cls-8{fill:#070b3b;}.cls-9{fill:#5454f7;}.cls-10{fill:#a0291a;}</style></defs><title>illustration_freelancer</title><g id="Слой_1" data-name="Слой 1"><path class="cls-1" d="M860,387.09c54.16-5.57,55.91,26.2,23.45,35.71,0,0-37.34,9,3.19,22.61s-39.4,25-39.4,25-179,16.88-225.91-25,25.31-43.32,25.31-43.32,39.24,1,49.28-21.6,39.49-33.38,63.39-10C759.31,370.48,784.32,394.65,860,387.09Z" transform="translate(-605.49 -336.74)"/><path class="cls-2" d="M725.34,432.2s-52.15-42.26-61.58,11.63c-8.65,60.87,31.74,74.07,91.18,68.65C819,505.79,794.56,422.86,725.34,432.2Z" transform="translate(-605.49 -336.74)"/><path class="cls-3" d="M814.2,499.88l23.09-1.94c3.09.07,6.59.66,7.39,3.27a15.51,15.51,0,0,1,.63,3.49c-.74,1-31.45,2.47-31.45,2.47l-.14-.1C810.15,503.44,814.2,499.88,814.2,499.88Z" transform="translate(-605.49 -336.74)"/><polygon class="cls-4" points="239.82 167.95 208.37 170.43 208.74 171.63 239.95 169.04 239.82 167.95"/><polygon class="cls-4" points="217.85 162.35 219.93 162.19 219.52 165.08 217.5 165.24 217.85 162.35"/><polygon class="cls-4" points="222.31 161.98 224.39 161.82 223.98 164.71 221.96 164.88 222.31 161.98"/><path class="cls-5" d="M812,492.32l2.22,7.56h0a7.51,7.51,0,0,0,6.2-.37l.34-.18.48-7.78Z" transform="translate(-605.49 -336.74)"/><path class="cls-3" d="M807,505.18l23.09-2c3.09.06,6.59.63,7.4,3.24a15.52,15.52,0,0,1,.64,3.49c-.73,1-31.44,2.57-31.44,2.57l-.14-.1C802.94,508.75,807,505.18,807,505.18Z" transform="translate(-605.49 -336.74)"/><polygon class="cls-4" points="232.62 173.16 201.17 175.73 201.55 176.93 232.76 174.25 232.62 173.16"/><polygon class="cls-4" points="210.64 167.62 212.72 167.46 212.31 170.34 210.29 170.51 210.64 167.62"/><polygon class="cls-4" points="215.09 167.24 217.17 167.07 216.77 169.96 214.75 170.13 215.09 167.24"/><path class="cls-5" d="M804.74,497.62l2.24,7.55h0a7.51,7.51,0,0,0,6.2-.39l.34-.18.45-7.78Z" transform="translate(-605.49 -336.74)"/><path class="cls-6" d="M713.88,446.37s3.68,29.21,30.31,30.44,58-29.13,58-29.13l10.3,46,10.23.22s6.64-70-7.65-73.52-67.45,19.56-67.45,19.56Z" transform="translate(-605.49 -336.74)"/><polygon class="cls-7" points="129.33 27.55 124.17 37.86 133.06 41.16 137.11 32.79 129.33 27.55"/><path class="cls-5" d="M737.24,345.71l-3.65,14.16c1.4.38,1.75,2.12,1.08,3.34a2.72,2.72,0,0,1-.09,1.1,16.75,16.75,0,0,0,11.52,6.77c9.35,1.07,9.36-17.65,9.36-17.65Z" transform="translate(-605.49 -336.74)"/><path class="cls-8" d="M729.53,354.8a9,9,0,0,0-1-4.56c-3.64-5.88,1.81-7.64,3.71-8.16,2.1-.58,2.75-3.87,5.58-4.93,4.31-1.63,6.77,2.23,9.12,2.51s4.65-2.24,7.39.33,1.59,5,2.29,6.39,3.52-1,5.62,3.39c3.18,6.63-6.89,5.89-6.89,5.89s-5.8.52-11.77-4.27a2.34,2.34,0,0,0-2.83-.18c-2.32,1.71-6,13.34-6,13.34l-1.68-2.6S728.37,359.57,729.53,354.8Z" transform="translate(-605.49 -336.74)"/><circle class="cls-5" cx="736.7" cy="357.4" r="2.24" transform="translate(-633.37 -272.41) rotate(-4.91)"/><path class="cls-9" d="M706.3,443.82s.68,29.44,27,33.37,60.71-23.06,60.71-23.06l10.07,45.12,10.38-.89s9-65.08-4.86-70.06-69.1,12.58-69.1,12.58Z" transform="translate(-605.49 -336.74)"/><path class="cls-4" d="M706.3,443.82l44-3.78a92.5,92.5,0,0,1-2.22-19.7,36.3,36.3,0,0,1,3.34-14.11c-1.3-16.81-6.3-33.41-21.14-32.62C704.73,378.13,706.3,443.82,706.3,443.82Z" transform="translate(-605.49 -336.74)"/><polygon class="cls-3" points="226.69 53.19 209.03 90.75 170.88 83.68 170.31 86.72 210.81 94.22 229.49 54.51 226.69 53.19"/><path class="cls-5" d="M734,407.37l17.39-1.49.57,19.38,31-7.56,7-4a8.49,8.49,0,0,1,6-.94l8.27,1.75a2,2,0,0,1,1.56,1.77l2.46,9.09s-2.08,1.34-4.81-6.36c-2.09,8.76-14.28,2.06-14.28,2.06l-4.41,2.7s-34,21.9-41.93,17S734,407.37,734,407.37Z" transform="translate(-605.49 -336.74)"/><path class="cls-5" d="M805.77,416.23a2,2,0,0,0-1.56-1.77l-8.27-1.75a8.5,8.5,0,0,0-6,.94l-7,4-1,.25.62,7.17c1.39-.86,2.2-1.38,2.2-1.38l4.41-2.7s12.19,6.7,14.28-2.06c2.73,7.7,4.81,6.36,4.81,6.36Z" transform="translate(-605.49 -336.74)"/><polygon class="cls-3" points="229.49 54.51 241.58 60.48 224.65 97.29 210.81 94.22 229.49 54.51"/><path class="cls-10" d="M736.78,491.17c-1.62-6.39-4.84-11-9.57-13.85-8.6-5.09-19.47-2.35-19.58-2.33l-.48-1.82c.47-.13,11.7-3,21,2.52,5.19,3.06,8.7,8.11,10.45,15Z" transform="translate(-605.49 -336.74)"/></g></svg>